<svg xmlns="http://www.w3.org/2000/svg" width="1600" height="580" viewBox="0 0 1600 580">
  <defs>
    <style>
      .bg { fill: #f8fafc; }
      .title { fill: #0f172a; font: 700 34px Arial, sans-serif; }
      .subtitle { fill: #475569; font: 500 18px Arial, sans-serif; }
      .stageTitle { fill: #ffffff; font: 700 18px Arial, sans-serif; }
      .cardTitle { fill: #0f172a; font: 700 18px Arial, sans-serif; }
      .cardText { fill: #334155; font: 500 15px Arial, sans-serif; }
      .checkmark { fill: #16a34a; font: 700 22px Arial, sans-serif; }
      .noteText { fill: #334155; font: 500 15px Arial, sans-serif; }
      .arrow { stroke: #64748b; stroke-width: 2.5; fill: none; marker-end: url(#arrowHead); }
    </style>
    <marker id="arrowHead" markerWidth="8" markerHeight="6" refX="7" refY="3" orient="auto">
      <polygon points="0 0, 8 3, 0 6" fill="#64748b"/>
    </marker>
  </defs>

  <rect class="bg" x="0" y="0" width="1600" height="580"/>

  <text class="title" x="800" y="50" text-anchor="middle">M1 Deliverable Map</text>
  <text class="subtitle" x="800" y="80" text-anchor="middle">What must exist before moving to M2 — each card is a reusable piece of the stack</text>

  <!-- Top row: 4 deliverables -->
  <rect x="100" y="110" width="1400" height="180" rx="18" fill="#eff6ff" stroke="#bfdbfe"/>
  <rect x="100" y="110" width="260" height="40" rx="12" fill="#2563eb"/>
  <text class="stageTitle" x="130" y="136">Core Deliverables</text>

  <!-- Card 1: Repo + Docs -->
  <rect x="140" y="168" width="280" height="100" rx="14" fill="#dbeafe" stroke="#93c5fd"/>
  <text class="checkmark" x="160" y="210">✓</text>
  <text class="cardTitle" x="188" y="210">Repo + Docs</text>
  <text class="cardText" x="160" y="240">Project structure, architecture</text>
  <text class="cardText" x="160" y="260">notes, design docs</text>

  <!-- Card 2: Slack Connector -->
  <rect x="450" y="168" width="280" height="100" rx="14" fill="#dbeafe" stroke="#93c5fd"/>
  <text class="checkmark" x="470" y="210">✓</text>
  <text class="cardTitle" x="498" y="210">Slack Connector</text>
  <text class="cardText" x="470" y="240">Channel I/O contract,</text>
  <text class="cardText" x="470" y="260">event normalization</text>

  <!-- Card 3: Inference Backend -->
  <rect x="760" y="168" width="280" height="100" rx="14" fill="#e0e7ff" stroke="#a5b4fc"/>
  <text class="checkmark" x="780" y="210">✓</text>
  <text class="cardTitle" x="808" y="210">Inference Backend</text>
  <text class="cardText" x="780" y="240">Provider abstraction,</text>
  <text class="cardText" x="780" y="260">retry + error handling</text>

  <!-- Card 4: Orchestrator Loop -->
  <rect x="1070" y="168" width="280" height="100" rx="14" fill="#dbeafe" stroke="#93c5fd"/>
  <text class="checkmark" x="1090" y="210">✓</text>
  <text class="cardTitle" x="1118" y="210">Orchestrator Loop</text>
  <text class="cardText" x="1090" y="240">End-to-end one-turn</text>
  <text class="cardText" x="1090" y="260">pipeline with repair</text>

  <path class="arrow" d="M420 218 L450 218"/>
  <path class="arrow" d="M730 218 L760 218"/>
  <path class="arrow" d="M1040 218 L1070 218"/>

  <!-- Bottom row: supporting deliverables -->
  <rect x="100" y="320" width="1400" height="180" rx="18" fill="#f5f3ff" stroke="#c4b5fd"/>
  <rect x="100" y="320" width="260" height="40" rx="12" fill="#7c3aed"/>
  <text class="stageTitle" x="130" y="346">Supporting Deliverables</text>

  <!-- Card 5: Architecture Diagrams -->
  <rect x="140" y="378" width="380" height="100" rx="14" fill="#ede9fe" stroke="#c4b5fd"/>
  <text class="checkmark" x="160" y="420">✓</text>
  <text class="cardTitle" x="188" y="420">Architecture Diagrams</text>
  <text class="cardText" x="160" y="450">Component boundaries, request/response</text>
  <text class="cardText" x="160" y="470">paths, error flows, credential flows</text>

  <!-- Card 6: Local Deployment -->
  <rect x="570" y="378" width="380" height="100" rx="14" fill="#ede9fe" stroke="#c4b5fd"/>
  <text class="checkmark" x="590" y="420">✓</text>
  <text class="cardTitle" x="618" y="420">Local + Sandbox Deployment</text>
  <text class="cardText" x="590" y="450">make run-local-dev, make setup-sandbox,</text>
  <text class="cardText" x="590" y="470">OpenShell gateway + policies</text>

  <!-- Card 7: Tests -->
  <rect x="1000" y="378" width="380" height="100" rx="14" fill="#ede9fe" stroke="#c4b5fd"/>
  <text class="checkmark" x="1020" y="420">✓</text>
  <text class="cardTitle" x="1048" y="420">Test Suite</text>
  <text class="cardText" x="1020" y="450">Connector, orchestrator, backend,</text>
  <text class="cardText" x="1020" y="470">transcript repair, approval gate</text>

  <!-- Vertical connectors -->
  <path class="arrow" d="M330 268 L330 320"/>
  <path class="arrow" d="M760 268 L760 320"/>
  <path class="arrow" d="M1210 268 L1210 320"/>

  <!-- Bottom note -->
  <rect x="100" y="528" width="1400" height="22" rx="10" fill="#e2e8f0"/>
  <text class="noteText" x="800" y="544" text-anchor="middle">Each deliverable leaves behind a reusable piece of the stack — not a one-off demo. All must pass before M2 begins.</text>
</svg>
