<svg xmlns="http://www.w3.org/2000/svg" width="1600" height="888" viewBox="0 0 1600 888">
  <defs>
    <style>
      .bg { fill: #f8fafc; }
      .title { fill: #0f172a; font: 700 34px Arial, sans-serif; }
      .subtitle { fill: #475569; font: 500 18px Arial, sans-serif; }
      .pillText { fill: #475569; font: 600 14px Arial, sans-serif; }
      .pillActive { fill: #ffffff; font: 700 14px Arial, sans-serif; }
      .stageTitle { fill: #ffffff; font: 700 18px Arial, sans-serif; }
      .cardTitle { fill: #0f172a; font: 700 18px Arial, sans-serif; }
      .cardText { fill: #334155; font: 500 15px Arial, sans-serif; }
      .mutedTitle { fill: #64748b; font: 700 18px Arial, sans-serif; }
      .mutedText { fill: #94a3b8; font: 500 15px Arial, sans-serif; }
      .noteTitle { fill: #0f172a; font: 700 18px Arial, sans-serif; }
      .noteText { fill: #334155; font: 500 15px Arial, sans-serif; }
      .arrow { stroke: #64748b; stroke-width: 2.5; fill: none; marker-end: url(#arrowHead); }
    </style>
    <marker id="arrowHead" markerWidth="8" markerHeight="6" refX="7" refY="3" orient="auto">
      <polygon points="0 0, 8 3, 0 6" fill="#64748b"/>
    </marker>
  </defs>

  <rect class="bg" x="0" y="0" width="1600" height="888"/>

  <text class="title" x="800" y="58" text-anchor="middle">M1 - Foundation: Local Orchestrator + Hosted Inference</text>
  <text class="subtitle" x="800" y="88" text-anchor="middle">The series starts with the smallest useful loop and leaves every later layer intentionally deferred.</text>

  <rect x="120" y="112" width="190" height="38" rx="12" fill="#2563eb"/>
  <rect x="325" y="112" width="190" height="38" rx="12" fill="#e2e8f0"/>
  <rect x="530" y="112" width="190" height="38" rx="12" fill="#e2e8f0"/>
  <rect x="735" y="112" width="190" height="38" rx="12" fill="#e2e8f0"/>
  <rect x="940" y="112" width="190" height="38" rx="12" fill="#e2e8f0"/>
  <rect x="1145" y="112" width="190" height="38" rx="12" fill="#e2e8f0"/>
  <text class="pillActive" x="215" y="136" text-anchor="middle">M1 Foundation</text>
  <text class="pillText" x="420" y="136" text-anchor="middle">M2 Coding Agent</text>
  <text class="pillText" x="625" y="136" text-anchor="middle">M3 Review</text>
  <text class="pillText" x="830" y="136" text-anchor="middle">M4 Memory</text>
  <text class="pillText" x="1035" y="136" text-anchor="middle">M5 Knowledge</text>
  <text class="pillText" x="1240" y="136" text-anchor="middle">M6 Learning</text>

  <rect x="120" y="185" width="1360" height="118" rx="18" fill="#eff6ff" stroke="#bfdbfe"/>
  <rect x="120" y="185" width="420" height="40" rx="12" fill="#2563eb"/>
  <text class="stageTitle" x="150" y="211">Stage 1: Foundation Loop</text>
  <rect x="170" y="238" width="230" height="46" rx="12" fill="#dbeafe" stroke="#93c5fd"/>
  <rect x="455" y="238" width="250" height="46" rx="12" fill="#dbeafe" stroke="#93c5fd"/>
  <rect x="760" y="238" width="250" height="46" rx="12" fill="#dbeafe" stroke="#93c5fd"/>
  <rect x="1065" y="238" width="240" height="46" rx="12" fill="#dbeafe" stroke="#93c5fd"/>
  <text class="cardTitle" x="285" y="266" text-anchor="middle">Slack connector</text>
  <text class="cardTitle" x="580" y="266" text-anchor="middle">Orchestrator</text>
  <text class="cardTitle" x="885" y="266" text-anchor="middle">Inference hub</text>
  <text class="cardTitle" x="1185" y="266" text-anchor="middle">Logs and retries</text>
  <path class="arrow" d="M400 261 L455 261"/>
  <path class="arrow" d="M705 261 L760 261"/>
  <path class="arrow" d="M1010 261 L1065 261"/>

  <rect x="120" y="332" width="1360" height="88" rx="18" fill="#f8fafc" stroke="#e2e8f0"/>
  <rect x="120" y="332" width="320" height="40" rx="12" fill="#cbd5e1"/>
  <text class="stageTitle" x="150" y="358">Stage 2: Sandboxed Coding Agent</text>
  <text class="mutedText" x="160" y="395">Added next: delegate work into an OpenShell sandbox once the core loop is stable.</text>

  <rect x="120" y="449" width="1360" height="88" rx="18" fill="#f8fafc" stroke="#e2e8f0"/>
  <rect x="120" y="449" width="290" height="40" rx="12" fill="#cbd5e1"/>
  <text class="stageTitle" x="150" y="475">Stage 3: Review Collaboration</text>
  <text class="mutedText" x="160" y="512">Added later: critique and improve work before it is returned or pushed.</text>

  <rect x="120" y="566" width="1360" height="88" rx="18" fill="#f8fafc" stroke="#e2e8f0"/>
  <rect x="120" y="566" width="285" height="40" rx="12" fill="#cbd5e1"/>
  <text class="stageTitle" x="150" y="592">Stage 4: Knowledge Capture</text>
  <text class="mutedText" x="160" y="629">Added later: summarize Slack and Teams context into a professional knowledge base.</text>

  <rect x="120" y="683" width="1360" height="78" rx="18" fill="#f8fafc" stroke="#e2e8f0"/>
  <rect x="120" y="683" width="350" height="40" rx="12" fill="#cbd5e1"/>
  <text class="stageTitle" x="150" y="709">Stages 5-6: Memory + Learning</text>
  <text class="mutedText" x="160" y="740">Added later: persistent memory orchestration and a self-improvement loop.</text>

  <rect x="120" y="790" width="1360" height="68" rx="18" fill="#fff7ed" stroke="#fdba74"/>
  <text class="noteTitle" x="150" y="818">Why this milestone matters</text>
  <text class="noteText" x="150" y="842">It proves the system can receive a request, route it to a model, and respond before any extra agent complexity is added.</text>
</svg>
